<svg width="21" height="21" viewBox="0 0 21 21" fill="none" xmlns="http://www.w3.org/2000/svg">
<g clip-path="url(#clip0_604_410)">
<path d="M1.40747 1.14014H4.7408L6.97414 12.2985C7.05034 12.6821 7.25906 13.0268 7.56376 13.2721C7.86846 13.5173 8.24972 13.6476 8.6408 13.6401H16.7408C17.1319 13.6476 17.5132 13.5173 17.8178 13.2721C18.1225 13.0268 18.3313 12.6821 18.4075 12.2985L19.7408 5.3068H5.57414M8.90747 17.8068C8.90747 18.267 8.53438 18.6401 8.07414 18.6401C7.6139 18.6401 7.2408 18.267 7.2408 17.8068C7.2408 17.3466 7.6139 16.9735 8.07414 16.9735C8.53438 16.9735 8.90747 17.3466 8.90747 17.8068ZM18.0741 17.8068C18.0741 18.267 17.701 18.6401 17.2408 18.6401C16.7806 18.6401 16.4075 18.267 16.4075 17.8068C16.4075 17.3466 16.7806 16.9735 17.2408 16.9735C17.701 16.9735 18.0741 17.3466 18.0741 17.8068Z" stroke="#1E1E1E" stroke-width="2" stroke-linecap="round" stroke-linejoin="round"/>
</g>
<defs>
<clipPath id="clip0_604_410">
<rect width="20" height="20" fill="white" transform="translate(0.574219 0.306641)"/>
</clipPath>
</defs>
</svg>
