<svg width="21" height="21" viewBox="0 0 21 21" fill="none" xmlns="http://www.w3.org/2000/svg">
<g clip-path="url(#clip0_604_430)">
<path d="M15.3306 7.48617H16.164C17.048 7.48617 17.8959 7.83735 18.521 8.46248C19.1461 9.0876 19.4973 9.93544 19.4973 10.8195C19.4973 11.7036 19.1461 12.5514 18.521 13.1765C17.8959 13.8016 17.048 14.1528 16.164 14.1528H15.3306M15.3306 7.48617H1.99731V14.9862C1.99731 15.8702 2.3485 16.7181 2.97363 17.3432C3.59875 17.9683 4.44659 18.3195 5.33065 18.3195H11.9973C12.8814 18.3195 13.7292 17.9683 14.3543 17.3432C14.9795 16.7181 15.3306 15.8702 15.3306 14.9862V7.48617ZM5.33065 1.65283V4.15283M8.66398 1.65283V4.15283M11.9973 1.65283V4.15283" stroke="#1E1E1E" stroke-width="2" stroke-linecap="round" stroke-linejoin="round"/>
</g>
<defs>
<clipPath id="clip0_604_430">
<rect width="20" height="20" fill="white" transform="translate(0.330566 0.819336)"/>
</clipPath>
</defs>
</svg>
