<svg width="21" height="21" viewBox="0 0 21 21" fill="none" xmlns="http://www.w3.org/2000/svg">
<g clip-path="url(#clip0_612_415)">
<path d="M14.8696 3.4345C15.0885 3.21563 15.3483 3.04201 15.6343 2.92356C15.9203 2.80511 16.2268 2.74414 16.5363 2.74414C16.8458 2.74414 17.1523 2.80511 17.4383 2.92356C17.7243 3.04201 17.9841 3.21563 18.203 3.4345C18.4218 3.65337 18.5954 3.9132 18.7139 4.19917C18.8324 4.48514 18.8933 4.79163 18.8933 5.10116C18.8933 5.41069 18.8324 5.71719 18.7139 6.00316C18.5954 6.28912 18.4218 6.54896 18.203 6.76783L6.95296 18.0178L2.36963 19.2678L3.61963 14.6845L14.8696 3.4345Z" stroke="#1E1E1E" stroke-width="2" stroke-linecap="round" stroke-linejoin="round"/>
</g>
<defs>
<clipPath id="clip0_612_415">
<rect width="20" height="20" fill="white" transform="translate(0.702881 0.93457)"/>
</clipPath>
</defs>
</svg>
