<svg width="21" height="21" viewBox="0 0 21 21" fill="none" xmlns="http://www.w3.org/2000/svg">
<path d="M6.40763 9.72949L9.74097 2.22949C10.404 2.22949 11.0399 2.49288 11.5087 2.96173C11.9776 3.43057 12.241 4.06645 12.241 4.72949V8.06283H16.9576C17.1992 8.06009 17.4385 8.10991 17.6589 8.20884C17.8794 8.30777 18.0756 8.45344 18.2342 8.63575C18.3927 8.81807 18.5097 9.03268 18.5771 9.2647C18.6444 9.49673 18.6606 9.74062 18.6243 9.97949L17.4743 17.4795C17.414 17.8769 17.2122 18.2392 16.9059 18.4995C16.5996 18.7598 16.2096 18.9007 15.8076 18.8962H6.40763M6.40763 9.72949V18.8962M6.40763 9.72949H3.90763C3.46561 9.72949 3.04168 9.90509 2.72912 10.2176C2.41656 10.5302 2.24097 10.9541 2.24097 11.3962V17.2295C2.24097 17.6715 2.41656 18.0954 2.72912 18.408C3.04168 18.7206 3.46561 18.8962 3.90763 18.8962H6.40763" stroke="#1E1E1E" stroke-width="2" stroke-linecap="round" stroke-linejoin="round"/>
</svg>
