<svg width="20" height="20" viewBox="0 0 20 20" fill="none" xmlns="http://www.w3.org/2000/svg">
<g clip-path="url(#clip0_604_405)">
<path d="M14.1666 17.5V15.8333C14.1666 14.9493 13.8154 14.1014 13.1903 13.4763C12.5652 12.8512 11.7173 12.5 10.8333 12.5H4.16659C3.28253 12.5 2.43468 12.8512 1.80956 13.4763C1.18444 14.1014 0.833252 14.9493 0.833252 15.8333V17.5M19.1666 17.5V15.8333C19.166 15.0948 18.9202 14.3773 18.4677 13.7936C18.0152 13.2099 17.3817 12.793 16.6666 12.6083M13.3333 2.60833C14.0503 2.79192 14.6858 3.20892 15.1396 3.79359C15.5935 4.37827 15.8398 5.09736 15.8398 5.8375C15.8398 6.57764 15.5935 7.29673 15.1396 7.88141C14.6858 8.46608 14.0503 8.88308 13.3333 9.06667M10.8333 5.83333C10.8333 7.67428 9.34087 9.16667 7.49992 9.16667C5.65897 9.16667 4.16659 7.67428 4.16659 5.83333C4.16659 3.99238 5.65897 2.5 7.49992 2.5C9.34087 2.5 10.8333 3.99238 10.8333 5.83333Z" stroke="#1E1E1E" stroke-width="2" stroke-linecap="round" stroke-linejoin="round"/>
</g>
<defs>
<clipPath id="clip0_604_405">
<rect width="20" height="20" fill="white"/>
</clipPath>
</defs>
</svg>
