<svg width="40" height="40" viewBox="0 0 40 40" fill="none" xmlns="http://www.w3.org/2000/svg">
<g clip-path="url(#clip0_473_3376)">
<path d="M28.3332 35V31.6667C28.3332 29.8986 27.6308 28.2029 26.3805 26.9526C25.1303 25.7024 23.4346 25 21.6665 25H8.33317C6.56506 25 4.86937 25.7024 3.61913 26.9526C2.36888 28.2029 1.6665 29.8986 1.6665 31.6667V35M38.3332 35V31.6667C38.3321 30.1895 37.8404 28.7546 36.9354 27.5872C36.0305 26.4198 34.7634 25.5859 33.3332 25.2167M26.6665 5.21667C28.1005 5.58384 29.3716 6.41783 30.2792 7.58718C31.1869 8.75653 31.6796 10.1947 31.6796 11.675C31.6796 13.1553 31.1869 14.5935 30.2792 15.7628C29.3716 16.9322 28.1005 17.7662 26.6665 18.1333M21.6665 11.6667C21.6665 15.3486 18.6817 18.3333 14.9998 18.3333C11.3179 18.3333 8.33317 15.3486 8.33317 11.6667C8.33317 7.98477 11.3179 5 14.9998 5C18.6817 5 21.6665 7.98477 21.6665 11.6667Z" stroke="#1E1E1E" stroke-width="3.5" stroke-linecap="round" stroke-linejoin="round"/>
</g>
<defs>
<clipPath id="clip0_473_3376">
<rect width="40" height="40" fill="white"/>
</clipPath>
</defs>
</svg>
